<mxfile host="Electron" modified="2023-12-14T15:31:14.757Z" agent="Mozilla/5.0 (Windows NT 10.0; Win64; x64) AppleWebKit/537.36 (KHTML, like Gecko) draw.io/22.1.2 Chrome/114.0.5735.289 Electron/25.9.4 Safari/537.36" etag="hllUjddf1AFPkoJ59On9" version="22.1.2" type="device">
  <diagram name="Page-1" id="37xXbm6Ucc00DsX8tHgN">
    <mxGraphModel dx="1232" dy="995" grid="1" gridSize="10" guides="1" tooltips="1" connect="1" arrows="1" fold="1" page="1" pageScale="1" pageWidth="850" pageHeight="1100" math="0" shadow="0">
      <root>
        <mxCell id="0" />
        <mxCell id="1" parent="0" />
        <mxCell id="QZjYZNE4ChBwINTzzqIZ-1" value="&lt;b&gt;p_mat_storage&lt;/b&gt;" style="rounded=0;whiteSpace=wrap;html=1;" parent="1" vertex="1">
          <mxGeometry x="80" y="240" width="260" height="250" as="geometry" />
        </mxCell>
        <mxCell id="QZjYZNE4ChBwINTzzqIZ-4" value="load" style="text;html=1;strokeColor=none;fillColor=none;align=center;verticalAlign=middle;whiteSpace=wrap;rounded=0;" parent="1" vertex="1">
          <mxGeometry x="80" y="255" width="50" height="20" as="geometry" />
        </mxCell>
        <mxCell id="QZjYZNE4ChBwINTzzqIZ-18" value="data_in" style="text;html=1;strokeColor=none;fillColor=none;align=center;verticalAlign=middle;whiteSpace=wrap;rounded=0;" parent="1" vertex="1">
          <mxGeometry x="80" y="275" width="60" height="20" as="geometry" />
        </mxCell>
        <mxCell id="QZjYZNE4ChBwINTzzqIZ-21" value="rd_slice_addr" style="text;html=1;strokeColor=none;fillColor=none;align=center;verticalAlign=middle;whiteSpace=wrap;rounded=0;" parent="1" vertex="1">
          <mxGeometry x="260" y="255" width="80" height="20" as="geometry" />
        </mxCell>
        <mxCell id="QZjYZNE4ChBwINTzzqIZ-88" style="edgeStyle=orthogonalEdgeStyle;rounded=0;orthogonalLoop=1;jettySize=auto;html=1;entryX=0;entryY=0.5;entryDx=0;entryDy=0;" parent="1" source="QZjYZNE4ChBwINTzzqIZ-22" target="QZjYZNE4ChBwINTzzqIZ-46" edge="1">
          <mxGeometry relative="1" as="geometry">
            <Array as="points">
              <mxPoint x="370" y="285" />
              <mxPoint x="370" y="560" />
              <mxPoint x="250" y="560" />
              <mxPoint x="250" y="735" />
            </Array>
          </mxGeometry>
        </mxCell>
        <mxCell id="QZjYZNE4ChBwINTzzqIZ-89" value="/17424" style="edgeLabel;html=1;align=center;verticalAlign=middle;resizable=0;points=[];" parent="QZjYZNE4ChBwINTzzqIZ-88" vertex="1" connectable="0">
          <mxGeometry x="-0.6523" y="3" relative="1" as="geometry">
            <mxPoint as="offset" />
          </mxGeometry>
        </mxCell>
        <mxCell id="QZjYZNE4ChBwINTzzqIZ-22" value="rd_slice_data" style="text;html=1;strokeColor=none;fillColor=none;align=center;verticalAlign=middle;whiteSpace=wrap;rounded=0;" parent="1" vertex="1">
          <mxGeometry x="260" y="275" width="80" height="20" as="geometry" />
        </mxCell>
        <mxCell id="QZjYZNE4ChBwINTzzqIZ-23" value="&lt;b&gt;s_vec_storage&lt;/b&gt;" style="rounded=0;whiteSpace=wrap;html=1;" parent="1" vertex="1">
          <mxGeometry x="480" y="240" width="260" height="250" as="geometry" />
        </mxCell>
        <mxCell id="QZjYZNE4ChBwINTzzqIZ-26" value="load" style="text;html=1;strokeColor=none;fillColor=none;align=center;verticalAlign=middle;whiteSpace=wrap;rounded=0;" parent="1" vertex="1">
          <mxGeometry x="480" y="255" width="50" height="20" as="geometry" />
        </mxCell>
        <mxCell id="QZjYZNE4ChBwINTzzqIZ-28" value="data_in" style="text;html=1;strokeColor=none;fillColor=none;align=center;verticalAlign=middle;whiteSpace=wrap;rounded=0;" parent="1" vertex="1">
          <mxGeometry x="480" y="275" width="60" height="20" as="geometry" />
        </mxCell>
        <mxCell id="QZjYZNE4ChBwINTzzqIZ-31" value="rd_addr_0" style="text;html=1;strokeColor=none;fillColor=none;align=center;verticalAlign=middle;whiteSpace=wrap;rounded=0;" parent="1" vertex="1">
          <mxGeometry x="660" y="255" width="80" height="20" as="geometry" />
        </mxCell>
        <mxCell id="QZjYZNE4ChBwINTzzqIZ-80" style="edgeStyle=orthogonalEdgeStyle;rounded=0;orthogonalLoop=1;jettySize=auto;html=1;entryX=0;entryY=0.5;entryDx=0;entryDy=0;" parent="1" source="QZjYZNE4ChBwINTzzqIZ-32" target="QZjYZNE4ChBwINTzzqIZ-40" edge="1">
          <mxGeometry relative="1" as="geometry">
            <Array as="points">
              <mxPoint x="770" y="285" />
              <mxPoint x="770" y="570" />
              <mxPoint x="280" y="570" />
              <mxPoint x="280" y="695" />
            </Array>
          </mxGeometry>
        </mxCell>
        <mxCell id="QZjYZNE4ChBwINTzzqIZ-82" value="/256" style="edgeLabel;html=1;align=center;verticalAlign=middle;resizable=0;points=[];" parent="QZjYZNE4ChBwINTzzqIZ-80" vertex="1" connectable="0">
          <mxGeometry x="-0.1516" relative="1" as="geometry">
            <mxPoint as="offset" />
          </mxGeometry>
        </mxCell>
        <mxCell id="QZjYZNE4ChBwINTzzqIZ-32" value="rd_data_0" style="text;html=1;strokeColor=none;fillColor=none;align=center;verticalAlign=middle;whiteSpace=wrap;rounded=0;" parent="1" vertex="1">
          <mxGeometry x="660" y="275" width="80" height="20" as="geometry" />
        </mxCell>
        <mxCell id="QZjYZNE4ChBwINTzzqIZ-33" value="rd_addr_1" style="text;html=1;strokeColor=none;fillColor=none;align=center;verticalAlign=middle;whiteSpace=wrap;rounded=0;" parent="1" vertex="1">
          <mxGeometry x="660" y="295" width="80" height="20" as="geometry" />
        </mxCell>
        <mxCell id="QZjYZNE4ChBwINTzzqIZ-81" style="edgeStyle=orthogonalEdgeStyle;rounded=0;orthogonalLoop=1;jettySize=auto;html=1;entryX=0;entryY=0.25;entryDx=0;entryDy=0;" parent="1" source="QZjYZNE4ChBwINTzzqIZ-34" target="QZjYZNE4ChBwINTzzqIZ-45" edge="1">
          <mxGeometry relative="1" as="geometry">
            <Array as="points">
              <mxPoint x="760" y="325" />
              <mxPoint x="760" y="580" />
              <mxPoint x="260" y="580" />
              <mxPoint x="260" y="710" />
            </Array>
          </mxGeometry>
        </mxCell>
        <mxCell id="QZjYZNE4ChBwINTzzqIZ-83" value="/256" style="edgeLabel;html=1;align=center;verticalAlign=middle;resizable=0;points=[];" parent="QZjYZNE4ChBwINTzzqIZ-81" vertex="1" connectable="0">
          <mxGeometry x="-0.2508" y="1" relative="1" as="geometry">
            <mxPoint as="offset" />
          </mxGeometry>
        </mxCell>
        <mxCell id="QZjYZNE4ChBwINTzzqIZ-34" value="rd_data_1" style="text;html=1;strokeColor=none;fillColor=none;align=center;verticalAlign=middle;whiteSpace=wrap;rounded=0;" parent="1" vertex="1">
          <mxGeometry x="660" y="315" width="80" height="20" as="geometry" />
        </mxCell>
        <mxCell id="QZjYZNE4ChBwINTzzqIZ-35" value="&lt;b&gt;compute_y_long&lt;/b&gt;" style="rounded=0;whiteSpace=wrap;html=1;" parent="1" vertex="1">
          <mxGeometry x="300" y="630" width="260" height="190" as="geometry" />
        </mxCell>
        <mxCell id="QZjYZNE4ChBwINTzzqIZ-38" value="en" style="text;html=1;strokeColor=none;fillColor=none;align=center;verticalAlign=middle;whiteSpace=wrap;rounded=0;" parent="1" vertex="1">
          <mxGeometry x="300" y="790" width="50" height="20" as="geometry" />
        </mxCell>
        <mxCell id="QZjYZNE4ChBwINTzzqIZ-40" value="S_data_0" style="text;html=1;strokeColor=none;fillColor=none;align=center;verticalAlign=middle;whiteSpace=wrap;rounded=0;" parent="1" vertex="1">
          <mxGeometry x="300" y="685" width="60" height="20" as="geometry" />
        </mxCell>
        <mxCell id="QZjYZNE4ChBwINTzzqIZ-75" style="edgeStyle=orthogonalEdgeStyle;rounded=0;orthogonalLoop=1;jettySize=auto;html=1;entryX=1;entryY=0.5;entryDx=0;entryDy=0;" parent="1" source="QZjYZNE4ChBwINTzzqIZ-41" target="QZjYZNE4ChBwINTzzqIZ-31" edge="1">
          <mxGeometry relative="1" as="geometry">
            <Array as="points">
              <mxPoint x="800" y="675" />
              <mxPoint x="800" y="265" />
            </Array>
          </mxGeometry>
        </mxCell>
        <mxCell id="QZjYZNE4ChBwINTzzqIZ-78" value="/7" style="edgeLabel;html=1;align=center;verticalAlign=middle;resizable=0;points=[];" parent="QZjYZNE4ChBwINTzzqIZ-75" vertex="1" connectable="0">
          <mxGeometry x="-0.7352" y="2" relative="1" as="geometry">
            <mxPoint as="offset" />
          </mxGeometry>
        </mxCell>
        <mxCell id="QZjYZNE4ChBwINTzzqIZ-41" value="S_addr_0" style="text;html=1;strokeColor=none;fillColor=none;align=center;verticalAlign=middle;whiteSpace=wrap;rounded=0;" parent="1" vertex="1">
          <mxGeometry x="480" y="665" width="80" height="20" as="geometry" />
        </mxCell>
        <mxCell id="QZjYZNE4ChBwINTzzqIZ-45" value="S_data_1" style="text;html=1;strokeColor=none;fillColor=none;align=center;verticalAlign=middle;whiteSpace=wrap;rounded=0;" parent="1" vertex="1">
          <mxGeometry x="300" y="705" width="60" height="20" as="geometry" />
        </mxCell>
        <mxCell id="QZjYZNE4ChBwINTzzqIZ-46" value="P_data" style="text;html=1;strokeColor=none;fillColor=none;align=center;verticalAlign=middle;whiteSpace=wrap;rounded=0;" parent="1" vertex="1">
          <mxGeometry x="300" y="725" width="60" height="20" as="geometry" />
        </mxCell>
        <mxCell id="QZjYZNE4ChBwINTzzqIZ-76" style="edgeStyle=orthogonalEdgeStyle;rounded=0;orthogonalLoop=1;jettySize=auto;html=1;entryX=1;entryY=0.5;entryDx=0;entryDy=0;" parent="1" source="QZjYZNE4ChBwINTzzqIZ-47" target="QZjYZNE4ChBwINTzzqIZ-33" edge="1">
          <mxGeometry relative="1" as="geometry">
            <Array as="points">
              <mxPoint x="830" y="700" />
              <mxPoint x="830" y="305" />
            </Array>
          </mxGeometry>
        </mxCell>
        <mxCell id="QZjYZNE4ChBwINTzzqIZ-79" value="/7" style="edgeLabel;html=1;align=center;verticalAlign=middle;resizable=0;points=[];" parent="QZjYZNE4ChBwINTzzqIZ-76" vertex="1" connectable="0">
          <mxGeometry x="-0.7377" y="-2" relative="1" as="geometry">
            <mxPoint as="offset" />
          </mxGeometry>
        </mxCell>
        <mxCell id="QZjYZNE4ChBwINTzzqIZ-47" value="S_addr_1" style="text;html=1;strokeColor=none;fillColor=none;align=center;verticalAlign=middle;whiteSpace=wrap;rounded=0;" parent="1" vertex="1">
          <mxGeometry x="480" y="690" width="80" height="20" as="geometry" />
        </mxCell>
        <mxCell id="QZjYZNE4ChBwINTzzqIZ-71" style="edgeStyle=orthogonalEdgeStyle;rounded=0;orthogonalLoop=1;jettySize=auto;html=1;entryX=1;entryY=0.5;entryDx=0;entryDy=0;" parent="1" source="QZjYZNE4ChBwINTzzqIZ-48" target="QZjYZNE4ChBwINTzzqIZ-21" edge="1">
          <mxGeometry relative="1" as="geometry">
            <Array as="points">
              <mxPoint x="610" y="650" />
              <mxPoint x="610" y="520" />
              <mxPoint x="420" y="520" />
              <mxPoint x="420" y="265" />
            </Array>
          </mxGeometry>
        </mxCell>
        <mxCell id="QZjYZNE4ChBwINTzzqIZ-77" value="/6" style="edgeLabel;html=1;align=center;verticalAlign=middle;resizable=0;points=[];" parent="QZjYZNE4ChBwINTzzqIZ-71" vertex="1" connectable="0">
          <mxGeometry x="-0.9206" y="3" relative="1" as="geometry">
            <mxPoint as="offset" />
          </mxGeometry>
        </mxCell>
        <mxCell id="QZjYZNE4ChBwINTzzqIZ-48" value="P_addr" style="text;html=1;strokeColor=none;fillColor=none;align=center;verticalAlign=middle;whiteSpace=wrap;rounded=0;" parent="1" vertex="1">
          <mxGeometry x="500" y="640" width="60" height="20" as="geometry" />
        </mxCell>
        <mxCell id="QZjYZNE4ChBwINTzzqIZ-49" value="&lt;b&gt;collapse_y_long&lt;/b&gt;" style="rounded=0;whiteSpace=wrap;html=1;" parent="1" vertex="1">
          <mxGeometry x="295" y="1000" width="260" height="130" as="geometry" />
        </mxCell>
        <mxCell id="QZjYZNE4ChBwINTzzqIZ-52" value="en" style="text;html=1;strokeColor=none;fillColor=none;align=center;verticalAlign=middle;whiteSpace=wrap;rounded=0;" parent="1" vertex="1">
          <mxGeometry x="295" y="1015" width="50" height="20" as="geometry" />
        </mxCell>
        <mxCell id="QZjYZNE4ChBwINTzzqIZ-55" value="y" style="text;html=1;strokeColor=none;fillColor=none;align=center;verticalAlign=middle;whiteSpace=wrap;rounded=0;" parent="1" vertex="1">
          <mxGeometry x="475" y="1015" width="80" height="20" as="geometry" />
        </mxCell>
        <mxCell id="QZjYZNE4ChBwINTzzqIZ-63" value="/512" style="edgeStyle=orthogonalEdgeStyle;rounded=0;orthogonalLoop=1;jettySize=auto;html=1;entryX=0;entryY=0.5;entryDx=0;entryDy=0;" parent="1" source="QZjYZNE4ChBwINTzzqIZ-60" target="QZjYZNE4ChBwINTzzqIZ-61" edge="1">
          <mxGeometry relative="1" as="geometry">
            <Array as="points">
              <mxPoint x="610" y="720" />
              <mxPoint x="610" y="950" />
              <mxPoint x="275" y="950" />
              <mxPoint x="275" y="1050" />
            </Array>
          </mxGeometry>
        </mxCell>
        <mxCell id="QZjYZNE4ChBwINTzzqIZ-60" value="y_long" style="text;html=1;strokeColor=none;fillColor=none;align=center;verticalAlign=middle;whiteSpace=wrap;rounded=0;" parent="1" vertex="1">
          <mxGeometry x="480" y="710" width="80" height="20" as="geometry" />
        </mxCell>
        <mxCell id="QZjYZNE4ChBwINTzzqIZ-61" value="y_long" style="text;html=1;strokeColor=none;fillColor=none;align=center;verticalAlign=middle;whiteSpace=wrap;rounded=0;" parent="1" vertex="1">
          <mxGeometry x="295" y="1040" width="80" height="20" as="geometry" />
        </mxCell>
        <mxCell id="QZjYZNE4ChBwINTzzqIZ-68" style="edgeStyle=orthogonalEdgeStyle;rounded=0;orthogonalLoop=1;jettySize=auto;html=1;" parent="1" source="QZjYZNE4ChBwINTzzqIZ-62" target="QZjYZNE4ChBwINTzzqIZ-66" edge="1">
          <mxGeometry relative="1" as="geometry" />
        </mxCell>
        <mxCell id="QZjYZNE4ChBwINTzzqIZ-62" value="rd_y" style="text;html=1;strokeColor=none;fillColor=none;align=center;verticalAlign=middle;whiteSpace=wrap;rounded=0;" parent="1" vertex="1">
          <mxGeometry x="475" y="1035" width="80" height="20" as="geometry" />
        </mxCell>
        <mxCell id="QZjYZNE4ChBwINTzzqIZ-64" value="&lt;b&gt;&lt;font color=&quot;#ff0000&quot; style=&quot;font-size: 14px;&quot;&gt;y&lt;/font&gt;&lt;/b&gt;" style="text;html=1;align=center;verticalAlign=middle;resizable=0;points=[];autosize=1;strokeColor=none;fillColor=none;" parent="1" vertex="1">
          <mxGeometry x="680" y="1008" width="30" height="30" as="geometry" />
        </mxCell>
        <mxCell id="QZjYZNE4ChBwINTzzqIZ-66" value="&lt;b&gt;&lt;font color=&quot;#ff0000&quot; style=&quot;font-size: 14px;&quot;&gt;rd_y&lt;/font&gt;&lt;/b&gt;" style="text;html=1;align=center;verticalAlign=middle;resizable=0;points=[];autosize=1;strokeColor=none;fillColor=none;" parent="1" vertex="1">
          <mxGeometry x="670" y="1030" width="50" height="30" as="geometry" />
        </mxCell>
        <mxCell id="QZjYZNE4ChBwINTzzqIZ-67" style="edgeStyle=orthogonalEdgeStyle;rounded=0;orthogonalLoop=1;jettySize=auto;html=1;entryX=0.1;entryY=0.567;entryDx=0;entryDy=0;entryPerimeter=0;" parent="1" source="QZjYZNE4ChBwINTzzqIZ-55" target="QZjYZNE4ChBwINTzzqIZ-64" edge="1">
          <mxGeometry relative="1" as="geometry" />
        </mxCell>
        <mxCell id="QZjYZNE4ChBwINTzzqIZ-69" value="/4" style="edgeLabel;html=1;align=center;verticalAlign=middle;resizable=0;points=[];" parent="QZjYZNE4ChBwINTzzqIZ-67" vertex="1" connectable="0">
          <mxGeometry x="-0.3125" y="1" relative="1" as="geometry">
            <mxPoint as="offset" />
          </mxGeometry>
        </mxCell>
        <mxCell id="QZjYZNE4ChBwINTzzqIZ-91" style="edgeStyle=orthogonalEdgeStyle;rounded=0;orthogonalLoop=1;jettySize=auto;html=1;entryX=0;entryY=0.5;entryDx=0;entryDy=0;" parent="1" source="QZjYZNE4ChBwINTzzqIZ-90" target="QZjYZNE4ChBwINTzzqIZ-38" edge="1">
          <mxGeometry relative="1" as="geometry" />
        </mxCell>
        <mxCell id="QZjYZNE4ChBwINTzzqIZ-90" value="&lt;font color=&quot;#66cc00&quot;&gt;&lt;span style=&quot;font-size: 14px;&quot;&gt;&lt;b&gt;&lt;br&gt;&lt;/b&gt;&lt;/span&gt;&lt;/font&gt;" style="text;html=1;align=center;verticalAlign=middle;resizable=0;points=[];autosize=1;strokeColor=none;fillColor=none;" parent="1" vertex="1">
          <mxGeometry x="90" y="900" width="20" height="30" as="geometry" />
        </mxCell>
        <mxCell id="-1MWyqwS2-0qJSxW7MM0-3" style="edgeStyle=orthogonalEdgeStyle;rounded=0;orthogonalLoop=1;jettySize=auto;html=1;entryX=0.5;entryY=0;entryDx=0;entryDy=0;" parent="1" source="QZjYZNE4ChBwINTzzqIZ-98" target="-1MWyqwS2-0qJSxW7MM0-1" edge="1">
          <mxGeometry relative="1" as="geometry" />
        </mxCell>
        <mxCell id="DMlvDjI9ZfygWGi1swXa-6" value="/8" style="edgeLabel;html=1;align=center;verticalAlign=middle;resizable=0;points=[];" parent="-1MWyqwS2-0qJSxW7MM0-3" vertex="1" connectable="0">
          <mxGeometry x="0.2" y="2" relative="1" as="geometry">
            <mxPoint as="offset" />
          </mxGeometry>
        </mxCell>
        <mxCell id="QZjYZNE4ChBwINTzzqIZ-98" value="&lt;font color=&quot;#66cc00&quot;&gt;&lt;span style=&quot;font-size: 14px;&quot;&gt;&lt;b&gt;data_in&lt;br&gt;&lt;/b&gt;&lt;/span&gt;&lt;/font&gt;" style="text;html=1;align=center;verticalAlign=middle;resizable=0;points=[];autosize=1;strokeColor=none;fillColor=none;" parent="1" vertex="1">
          <mxGeometry x="325" y="30" width="70" height="30" as="geometry" />
        </mxCell>
        <mxCell id="-1MWyqwS2-0qJSxW7MM0-4" style="edgeStyle=orthogonalEdgeStyle;rounded=0;orthogonalLoop=1;jettySize=auto;html=1;exitX=0.25;exitY=1;exitDx=0;exitDy=0;entryX=0;entryY=0.5;entryDx=0;entryDy=0;" parent="1" source="-1MWyqwS2-0qJSxW7MM0-1" target="QZjYZNE4ChBwINTzzqIZ-18" edge="1">
          <mxGeometry relative="1" as="geometry">
            <Array as="points">
              <mxPoint x="330" y="193" />
              <mxPoint x="40" y="193" />
              <mxPoint x="40" y="285" />
            </Array>
          </mxGeometry>
        </mxCell>
        <mxCell id="DMlvDjI9ZfygWGi1swXa-7" value="/8" style="edgeLabel;html=1;align=center;verticalAlign=middle;resizable=0;points=[];" parent="-1MWyqwS2-0qJSxW7MM0-4" vertex="1" connectable="0">
          <mxGeometry x="-0.2238" relative="1" as="geometry">
            <mxPoint as="offset" />
          </mxGeometry>
        </mxCell>
        <mxCell id="-1MWyqwS2-0qJSxW7MM0-5" style="edgeStyle=orthogonalEdgeStyle;rounded=0;orthogonalLoop=1;jettySize=auto;html=1;exitX=0.75;exitY=1;exitDx=0;exitDy=0;entryX=0;entryY=0.5;entryDx=0;entryDy=0;" parent="1" source="-1MWyqwS2-0qJSxW7MM0-1" target="QZjYZNE4ChBwINTzzqIZ-28" edge="1">
          <mxGeometry relative="1" as="geometry">
            <Array as="points">
              <mxPoint x="390" y="190" />
              <mxPoint x="440" y="190" />
              <mxPoint x="440" y="285" />
            </Array>
          </mxGeometry>
        </mxCell>
        <mxCell id="DMlvDjI9ZfygWGi1swXa-8" value="/8" style="edgeLabel;html=1;align=center;verticalAlign=middle;resizable=0;points=[];" parent="-1MWyqwS2-0qJSxW7MM0-5" vertex="1" connectable="0">
          <mxGeometry x="0.2151" y="-1" relative="1" as="geometry">
            <mxPoint as="offset" />
          </mxGeometry>
        </mxCell>
        <mxCell id="-1MWyqwS2-0qJSxW7MM0-1" value="" style="shape=trapezoid;perimeter=trapezoidPerimeter;whiteSpace=wrap;html=1;fixedSize=1;direction=east;" parent="1" vertex="1">
          <mxGeometry x="300" y="90" width="120" height="20" as="geometry" />
        </mxCell>
        <mxCell id="-1MWyqwS2-0qJSxW7MM0-7" style="edgeStyle=orthogonalEdgeStyle;rounded=0;orthogonalLoop=1;jettySize=auto;html=1;entryX=1;entryY=0.5;entryDx=0;entryDy=0;" parent="1" source="-1MWyqwS2-0qJSxW7MM0-6" target="-1MWyqwS2-0qJSxW7MM0-1" edge="1">
          <mxGeometry relative="1" as="geometry" />
        </mxCell>
        <mxCell id="-1MWyqwS2-0qJSxW7MM0-9" style="edgeStyle=orthogonalEdgeStyle;rounded=0;orthogonalLoop=1;jettySize=auto;html=1;entryX=0;entryY=0.5;entryDx=0;entryDy=0;" parent="1" source="-1MWyqwS2-0qJSxW7MM0-6" target="QZjYZNE4ChBwINTzzqIZ-4" edge="1">
          <mxGeometry relative="1" as="geometry">
            <Array as="points">
              <mxPoint x="495" y="160" />
              <mxPoint x="60" y="160" />
              <mxPoint x="60" y="265" />
            </Array>
          </mxGeometry>
        </mxCell>
        <mxCell id="-1MWyqwS2-0qJSxW7MM0-6" value="&lt;font color=&quot;#66cc00&quot;&gt;&lt;span style=&quot;font-size: 14px;&quot;&gt;&lt;b&gt;p/s sel&lt;br&gt;&lt;/b&gt;&lt;/span&gt;&lt;/font&gt;" style="text;html=1;align=center;verticalAlign=middle;resizable=0;points=[];autosize=1;strokeColor=none;fillColor=none;" parent="1" vertex="1">
          <mxGeometry x="460" y="85" width="70" height="30" as="geometry" />
        </mxCell>
        <mxCell id="-1MWyqwS2-0qJSxW7MM0-8" style="edgeStyle=orthogonalEdgeStyle;rounded=0;orthogonalLoop=1;jettySize=auto;html=1;entryX=0.004;entryY=0.104;entryDx=0;entryDy=0;entryPerimeter=0;" parent="1" source="-1MWyqwS2-0qJSxW7MM0-6" target="QZjYZNE4ChBwINTzzqIZ-23" edge="1">
          <mxGeometry relative="1" as="geometry">
            <Array as="points">
              <mxPoint x="495" y="160" />
              <mxPoint x="460" y="160" />
              <mxPoint x="460" y="266" />
            </Array>
          </mxGeometry>
        </mxCell>
        <mxCell id="DMlvDjI9ZfygWGi1swXa-5" style="edgeStyle=orthogonalEdgeStyle;rounded=0;orthogonalLoop=1;jettySize=auto;html=1;entryX=0;entryY=0.5;entryDx=0;entryDy=0;" parent="1" source="-1MWyqwS2-0qJSxW7MM0-11" target="DMlvDjI9ZfygWGi1swXa-1" edge="1">
          <mxGeometry relative="1" as="geometry">
            <Array as="points">
              <mxPoint x="200" y="915" />
              <mxPoint x="200" y="1025" />
            </Array>
          </mxGeometry>
        </mxCell>
        <mxCell id="-1MWyqwS2-0qJSxW7MM0-11" value="&lt;font color=&quot;#66cc00&quot;&gt;&lt;span style=&quot;font-size: 14px;&quot;&gt;&lt;b&gt;stage sel&lt;br&gt;&lt;/b&gt;&lt;/span&gt;&lt;/font&gt;" style="text;html=1;align=center;verticalAlign=middle;resizable=0;points=[];autosize=1;strokeColor=none;fillColor=none;" parent="1" vertex="1">
          <mxGeometry x="40" y="900" width="80" height="30" as="geometry" />
        </mxCell>
        <mxCell id="DMlvDjI9ZfygWGi1swXa-1" value="" style="ellipse;whiteSpace=wrap;html=1;" parent="1" vertex="1">
          <mxGeometry x="285" y="1020" width="10" height="10" as="geometry" />
        </mxCell>
      </root>
    </mxGraphModel>
  </diagram>
</mxfile>
